{
  "accessors": [
    {
      "bufferView": 2,
      "componentType": 5126,
      "count": 1344,
      "max": [
        10.563209533691406,
        4.205236911773682,
        14.33724308013916
      ],
      "min": [
        -11.171464920043945,
        -5.1733479499816895,
        0.0
      ],
      "type": "VEC3"
    },
    {
      "bufferView": 2,
      "byteOffset": 16128,
      "componentType": 5126,
      "count": 1344,
      "max": [
        0.9982470273971558,
        0.9994603395462036,
        0.9976469874382019
      ],
      "min": [
        -0.9982627630233765,
        -0.9992787837982178,
        -0.999758780002594
      ],
      "type": "VEC3"
    },
    {
      "bufferView": 1,
      "componentType": 5126,
      "count": 1344,
      "max": [
        2.992187976837158,
        1.9941409826278687
      ],
      "min": [
        0.5361329913139343,
        1.0068360567092896
      ],
      "type": "VEC2"
    },
    {
      "bufferView": 0,
      "componentType": 5125,
      "count": 5166,
      "type": "SCALAR"
    },
    {
      "bufferView": 2,
      "byteOffset": 32256,
      "componentType": 5126,
      "count": 931,
      "max": [
        7.545731067657471,
        6.494297027587891,
        24.52064323425293
      ],
      "min": [
        -7.951932907104492,
        -6.494297027587891,
        11.350099563598633
      ],
      "type": "VEC3"
    },
    {
      "bufferView": 2,
      "byteOffset": 43428,
      "componentType": 5126,
      "count": 931,
      "max": [
        0.9957703351974487,
        0.9986583590507507,
        0.9999589920043945
      ],
      "min": [
        -0.9957184791564941,
        -0.9995672106742859,
        -0.9987395405769348
      ],
      "type": "VEC3"
    },
    {
      "bufferView": 1,
      "byteOffset": 10752,
      "componentType": 5126,
      "count": 931,
      "max": [
        1.9716800451278687,
        1.9833979606628418
      ],
      "min": [
        -0.3789060115814209,
        0.43945300579071045
      ],
      "type": "VEC2"
    },
    {
      "bufferView": 0,
      "byteOffset": 20664,
      "componentType": 5125,
      "count": 5808,
      "type": "SCALAR"
    }
  ],
  "asset": {
    "extras": {
      "author": "guinavarro.al (https://sketchfab.com/guinavarro.al)",
      "license": "CC-BY-4.0 (http://creativecommons.org/licenses/by/4.0/)",
      "source": "https://sketchfab.com/3d-models/dora-the-explorer-a53cb146ee4e43f2a24e93363c93858e",
      "title": "Dora The Explorer"
    },
    "generator": "Sketchfab-15.50.0",
    "version": "2.0"
  },
  "bufferViews": [
    {
      "buffer": 0,
      "byteLength": 43896,
      "name": "floatBufferViews",
      "target": 34963
    },
    {
      "buffer": 0,
      "byteLength": 18200,
      "byteOffset": 43896,
      "byteStride": 8,
      "name": "floatBufferViews",
      "target": 34962
    },
    {
      "buffer": 0,
      "byteLength": 54600,
      "byteOffset": 62096,
      "byteStride": 12,
      "name": "floatBufferViews",
      "target": 34962
    }
  ],
  "buffers": [
    {
      "byteLength": 116696,
      "uri": "scene.bin"
    }
  ],
  "images": [
    {
      "uri": "textures/mesh0010mat_baseColor.png"
    },
    {
      "uri": "textures/mesh0011mat_baseColor.png"
    }
  ],
  "materials": [
    {
      "doubleSided": true,
      "name": "mesh0010mat",
      "pbrMetallicRoughness": {
        "baseColorTexture": {
          "index": 0
        },
        "metallicFactor": 0.0
      }
    },
    {
      "doubleSided": true,
      "name": "mesh0011mat",
      "pbrMetallicRoughness": {
        "baseColorTexture": {
          "index": 1
        },
        "metallicFactor": 0.0
      }
    }
  ],
  "meshes": [
    {
      "name": "Object_0",
      "primitives": [
        {
          "attributes": {
            "NORMAL": 1,
            "POSITION": 0,
            "TEXCOORD_0": 2
          },
          "indices": 3,
          "material": 0,
          "mode": 4
        }
      ]
    },
    {
      "name": "Object_1",
      "primitives": [
        {
          "attributes": {
            "NORMAL": 5,
            "POSITION": 4,
            "TEXCOORD_0": 6
          },
          "indices": 7,
          "material": 1,
          "mode": 4
        }
      ]
    }
  ],
  "nodes": [
    {
      "children": [
        1
      ],
      "matrix": [
        1.0,
        0.0,
        0.0,
        0.0,
        0.0,
        2.220446049250313e-16,
        -1.0,
        0.0,
        0.0,
        1.0,
        2.220446049250313e-16,
        0.0,
        0.0,
        0.0,
        0.0,
        1.0
      ],
      "name": "Sketchfab_model"
    },
    {
      "children": [
        2,
        3
      ],
      "name": "dora.obj.cleaner.materialmerger.gles"
    },
    {
      "mesh": 0,
      "name": "Object_2"
    },
    {
      "mesh": 1,
      "name": "Object_3"
    }
  ],
  "samplers": [
    {
      "magFilter": 9729,
      "minFilter": 9987,
      "wrapS": 10497,
      "wrapT": 10497
    }
  ],
  "scene": 0,
  "scenes": [
    {
      "name": "Sketchfab_Scene",
      "nodes": [
        0
      ]
    }
  ],
  "textures": [
    {
      "sampler": 0,
      "source": 0
    },
    {
      "sampler": 0,
      "source": 1
    }
  ]
}
